<?xml version="1.0" encoding="UTF-8"?>
<svg width="24px" height="24px" viewBox="0 0 24 24" version="1.1" xmlns="http://www.w3.org/2000/svg" xmlns:xlink="http://www.w3.org/1999/xlink">
    <title>currency-usd-circle</title>
    <g id="Design" stroke="none" stroke-width="1" fill="none" fill-rule="evenodd">
        <g id="09b-Certify-and-Review---Entered" transform="translate(-110.000000, -409.000000)" fill="#38598A" fill-rule="nonzero">
            <g id="Page-Content" transform="translate(83.000000, 391.000000)">
                <g id="currency-usd-circle" transform="translate(27.000000, 18.000000)">
                    <path d="M12,0 C5.372583,0 0,5.372583 0,12 C0,18.627417 5.372583,24 12,24 C18.627417,24 24,18.627417 24,12 C24,8.81740212 22.7357179,5.76515517 20.4852814,3.51471863 C18.2348448,1.26428208 15.1825979,0 12,0 M15.6,9.6 L10.8,9.6 L10.8,10.8 L14.4,10.8 C15.0627417,10.8 15.6,11.3372583 15.6,12 L15.6,15.6 C15.6,16.2627417 15.0627417,16.8 14.4,16.8 L13.2,16.8 L13.2,18 L10.8,18 L10.8,16.8 L8.4,16.8 L8.4,14.4 L13.2,14.4 L13.2,13.2 L9.6,13.2 C8.9372583,13.2 8.4,12.6627417 8.4,12 L8.4,8.4 C8.4,7.7372583 8.9372583,7.2 9.6,7.2 L10.8,7.2 L10.8,6 L13.2,6 L13.2,7.2 L15.6,7.2 L15.6,9.6 Z" id="Shape"></path>
                </g>
            </g>
        </g>
    </g>
</svg>